<svg xmlns="http://www.w3.org/2000/svg" width="114" height="130" viewBox="0 0 114 130">
  <g id="Group_13" data-name="Group 13" transform="translate(-1130 -557)">
    <g id="Ellipse_4" data-name="Ellipse 4" transform="translate(1130 573)" fill="none" stroke="#fff" stroke-width="12">
      <circle cx="57" cy="57" r="57" stroke="none"/>
      <circle cx="57" cy="57" r="51" fill="none"/>
    </g>
    <g id="Union_1" data-name="Union 1" transform="translate(1199.353 557) rotate(20)" fill="#fff">
      <path d="M 13.73209285736084 86.96831512451172 C 10.19708156585693 86.96831512451172 6.873837471008301 85.59981536865234 4.374537467956543 83.11489105224609 C 1.876004099845886 80.63074493408203 0.5000041127204895 77.32807922363281 0.5000041127204895 73.81526947021484 C 0.5000041127204895 71.16392517089844 1.289970755577087 68.60854339599609 2.784492969512939 66.42539978027344 C 4.244281768798828 64.29301452636719 6.278081893920898 62.64542388916016 8.66602611541748 61.66075897216797 L 8.838248252868652 61.58973693847656 L 8.922015190124512 61.42334747314453 L 38.05149459838867 3.561449766159058 L 25.18083763122559 66.96551513671875 L 25.14336013793945 67.15015411376953 L 25.2370491027832 67.31361389160156 C 26.3668155670166 69.28472137451172 26.96398162841797 71.532958984375 26.96398162841797 73.81526947021484 C 26.96398162841797 77.32807159423828 25.58798217773438 80.6307373046875 23.08946990966797 83.11489105224609 C 20.5901927947998 85.59981536865234 17.26701545715332 86.96831512451172 13.73209285736084 86.96831512451172 Z" stroke="none"/>
      <path d="M 13.73209095001221 86.46832275390625 C 17.13399696350098 86.46832275390625 20.33198547363281 85.15146636962891 22.7369384765625 82.76033782958984 C 25.14036178588867 80.37071990966797 26.46398544311523 77.1939697265625 26.46398544311523 73.81527709960938 C 26.46398544311523 71.62004089355469 25.88971519470215 69.45777893066406 24.80325508117676 67.56226348876953 L 24.61586761474609 67.23533630371094 L 36.81836318969727 7.122855663299561 L 9.201067924499512 61.9809684753418 L 8.856620788574219 62.12299346923828 C 6.558820247650146 63.07049942016602 4.601785182952881 64.65591430664062 3.197079181671143 66.70785522460938 C 1.759738087654114 68.80744934082031 0.9999969601631165 71.26516723632812 0.9999969601631165 73.81527709960938 C 0.9999969601631165 77.19397735595703 2.32363224029541 80.37071990966797 4.727067470550537 82.76032257080078 C 7.132055759429932 85.15146636962891 10.33009147644043 86.46832275390625 13.73209095001221 86.46832275390625 M 13.73209095001221 87.46832275390625 C 6.147984981536865 87.46832275390625 -3.056784180444083e-06 81.35573577880859 -3.056784180444083e-06 73.81527709960938 C -3.056784180444083e-06 68.12648773193359 3.499961614608765 63.25014495849609 8.475408554077148 61.19850921630859 L 39.2846565246582 4.621079369826475e-06 L 25.67084312438965 67.06497955322266 C 26.81190299987793 69.05575561523438 27.46398544311523 71.36000823974609 27.46398544311523 73.81527709960938 C 27.46398544311523 81.35573577880859 21.31599617004395 87.46832275390625 13.73209095001221 87.46832275390625 Z" stroke="none" fill="#fff"/>
    </g>
  </g>
</svg>
