<svg xmlns="http://www.w3.org/2000/svg" width="119.436" height="159.072" viewBox="0 0 119.436 159.072">
  <g id="windmill" transform="translate(40.006 -0.006)">
    <path id="Path_10" data-name="Path 10" d="M44.536,64.3a11.277,11.277,0,0,1,2.253,1.049,13.068,13.068,0,0,1,6.978-9.943,12.15,12.15,0,0,1-1.541-1.515,11.943,11.943,0,0,1-1.7-2.641c-1.761-3.741-1.243-7.211-.7-10.771.117-.738.22-1.476.246-1.7L54.53,4.84c.013-.065.013-.117.026-.168h0A5.79,5.79,0,0,1,57.417.62,4.991,4.991,0,0,1,60.006.011,4.91,4.91,0,0,1,62.57.853a6.153,6.153,0,0,1,2.55,4.492.98.98,0,0,1,.013.194l4.7,37.362h.013a20.159,20.159,0,0,1,.026,6.175,10.031,10.031,0,0,1-3.547,6.072c-.155.129-.311.259-.466.375A13.218,13.218,0,0,1,68.926,57.8a13.085,13.085,0,0,1,3.793,8.35A11.03,11.03,0,0,1,75.852,65.1,12.773,12.773,0,0,1,79,64.948c4.1.337,6.861,2.524,9.671,4.764.466.375.932.751,1.346,1.062l27.2,20.8a1.166,1.166,0,0,1,.129.117h0a5.827,5.827,0,0,1,2.084,4.505,4.924,4.924,0,0,1-2.783,4.35,6.12,6.12,0,0,1-5.14-.039v.013L76.6,85.856a19.936,19.936,0,0,1-5.373-3.068,10.011,10.011,0,0,1-3.392-5.593c-.285.233-.6.453-.906.66l9.218,62.814H94.132a3.567,3.567,0,0,1,2.5,1.036l.013.013h0a3.567,3.567,0,0,1,1.036,2.5v11.328a3.567,3.567,0,0,1-1.036,2.5h0a3.56,3.56,0,0,1-2.486,1.036H25.3a3.567,3.567,0,0,1-2.5-1.036h0a3.56,3.56,0,0,1-1.036-2.486V144.229a3.567,3.567,0,0,1,1.036-2.5l.013-.013h0a3.567,3.567,0,0,1,2.5-1.036h17.93L51.2,78.075a2.21,2.21,0,0,1,.259-.971c-.194-.155-.375-.324-.557-.492-.039.142-.091.285-.129.427a12.317,12.317,0,0,1-1.385,2.809c-2.291,3.444-5.541,4.79-8.855,6.175-.583.246-1.178.492-1.579.673L7.575,100.42c-.052.026-.1.039-.155.065h0a5.845,5.845,0,0,1-4.958-.35A4.962,4.962,0,0,1,.6,98.232,4.892,4.892,0,0,1,0,95.6,6.16,6.16,0,0,1,2.526,91.1c.052-.039.091-.065.142-.1L32.237,67.654a19.816,19.816,0,0,1,5.282-3.224,10,10,0,0,1,7.017-.129ZM62.6,80.483H55.618l-7.7,60.173H71.476L62.6,80.483ZM26.411,145.317v9.114H93.018v-9.114ZM65.638,61.077a8.408,8.408,0,1,0,2.447,5.929,8.355,8.355,0,0,0-2.447-5.929ZM61.909,52.52a6.321,6.321,0,0,0,1.437-.932A5.554,5.554,0,0,0,65.3,48.209a15.583,15.583,0,0,0-.078-4.764h.013l-4.7-37.336c-.013-.065-.026-.142-.039-.207a1.607,1.607,0,0,0-.518-1.2.3.3,0,0,0-.168-.065.365.365,0,0,0-.194.052,1.238,1.238,0,0,0-.518.88L54.66,39.393c-.129.945-.181,1.359-.246,1.787-.427,2.848-.854,5.644.3,8.091a7.914,7.914,0,0,0,1.036,1.644,5.814,5.814,0,0,0,2.887,1.916,4.683,4.683,0,0,0,3.275-.311ZM72.2,74.178a6.308,6.308,0,0,0,.091,1.7,5.59,5.59,0,0,0,1.955,3.392,15.538,15.538,0,0,0,4.156,2.3l34.9,14.642v.013h0a1.694,1.694,0,0,0,1.32.155.283.283,0,0,0,.129-.117.3.3,0,0,0,.052-.181,1.358,1.358,0,0,0-.5-.893L87.193,74.463c-.518-.4-.971-.764-1.424-1.113-2.253-1.8-4.453-3.547-7.172-3.767a7.947,7.947,0,0,0-1.942.078A5.807,5.807,0,0,0,73.548,71.2,4.633,4.633,0,0,0,72.2,74.178ZM44.588,69.44a6.079,6.079,0,0,0-1.541-.738,5.606,5.606,0,0,0-3.91.065,16.147,16.147,0,0,0-4.026,2.512L5.556,94.633c-.052.039-.091.078-.142.117-.518.414-.751.777-.764,1.062a.324.324,0,0,0,.039.168.448.448,0,0,0,.129.142,1.25,1.25,0,0,0,1.023-.013l31.252-13.7c.673-.3,1.165-.5,1.657-.7,2.667-1.1,5.269-2.188,6.771-4.44a7.582,7.582,0,0,0,.867-1.748,5.817,5.817,0,0,0,.155-3.47,4.8,4.8,0,0,0-1.955-2.615Z" transform="translate(-40 0)" fill="#fff"/>
  </g>
</svg>
